<?xml version="1.0" encoding="UTF-8"?>
<svg width="123px" height="47px" viewBox="0 0 123 47" version="1.1" xmlns="http://www.w3.org/2000/svg" xmlns:xlink="http://www.w3.org/1999/xlink">
    <!-- Generator: Sketch 63.1 (92452) - https://sketch.com -->
    <title>mdpi/Illustration/RedX_Logo</title>
    <desc>Created with Sketch.</desc>
    <g id="Symbols" stroke="none" stroke-width="1" fill="none" fill-rule="evenodd">
        <g id="../Navigation_Unsigned" transform="translate(-32.000000, -17.000000)">
            <g id="../Illustration/RedX_Logo" transform="translate(32.000000, 17.000000)">
                <g id="New-RED-X-delivery-logo-(2)">
                    <g id="Group" fill-rule="nonzero">
                        <g transform="translate(89.287247, 0.000000)" fill="#EB2127" id="Path">
                            <polygon points="19.3147283 15.3009642 10.9874203 30.4389045 0.115657055 30.4389045 8.48922787 15.2776751 0.138788467 0.116445694 10.9874203 0.116445694 19.3378597 15.2776751"></polygon>
                            <polygon points="23.1314111 15.2776751 18.2506833 6.42780233 21.720395 0.116445694 32.5921582 0.116445694 24.2417188 15.2776751 32.5921582 30.4389045 21.7435264 30.4389045 18.2506833 24.1042587 23.1082797 15.3009642"></polygon>
                        </g>
                        <g fill="#010101">
                            <path d="M13.0923787,0.0931565555 C21.7897892,0.0931565555 26.6936484,4.21533414 26.6936484,11.5979912 C26.6936484,16.1160841 24.9125297,19.3066961 21.7435264,21.1465381 L27.7345619,29.4141824 L27.7345619,30.4621937 L17.9037122,30.4621937 L12.3521735,22.8233561 L9.3913529,22.8233561 L9.3913529,30.4389045 L0.138788467,30.4389045 L0.138788467,0.0931565555 L13.0923787,0.0931565555 Z M13.670664,15.4174099 C16.1919878,15.4174099 17.5798724,14.0200616 17.5798724,11.574702 C17.5798724,9.17592072 16.0069365,7.8484398 13.1849043,7.8484398 L9.36822149,7.8484398 L9.36822149,15.4174099 L13.670664,15.4174099 Z" id="Shape"></path>
                            <polygon id="Path" points="30.2790171 30.4389045 30.2790171 0.0931565555 53.1559827 0.0931565555 53.1559827 7.8484398 39.4159245 7.8484398 39.4159245 11.737726 51.0741557 11.737726 51.0741557 19.0039373 39.4159245 19.0039373 39.4159245 22.637043 53.5492167 22.637043 53.5492167 30.4389045"></polygon>
                            <path d="M68.931605,0.0931565555 C79.7108426,0.0931565555 85.7944037,5.56610419 85.7944037,15.2776751 C85.7944037,24.989246 79.7108426,30.4621937 68.931605,30.4621937 L57.1577168,30.4621937 L57.1577168,0.0931565555 L68.931605,0.0931565555 Z M68.931605,22.5205973 C73.7198071,22.5205973 76.4493136,19.9355029 76.4493136,15.254386 C76.4493136,10.5732691 73.7198071,7.94159636 68.931605,7.94159636 L66.4102812,7.94159636 L66.4102812,22.5205973 L68.931605,22.5205973 L68.931605,22.5205973 Z" id="Shape"></path>
                        </g>
                    </g>
                    <g id="Group" transform="translate(0.825503, 34.631579)" fill="#000000" fill-opacity="0.7" fill-rule="nonzero">
                        <path d="M8.21297369,5.09008097 C8.21297369,5.80364372 8.09762294,6.4458502 7.88999158,7.04048583 C7.65929007,7.63512146 7.35937811,8.13461538 6.96718555,8.53896761 C6.57499298,8.94331984 6.09051982,9.27631579 5.5368362,9.51417004 C4.98315258,9.75202429 4.3602585,9.84716599 3.66815398,9.84716599 L0.207631357,9.84716599 L0.207631357,0.309210526 L3.66815398,0.309210526 C4.33718835,0.309210526 4.96008243,0.428137652 5.5368362,0.642206478 C6.09051982,0.880060729 6.57499298,1.18927126 6.96718555,1.61740891 C7.35937811,2.04554656 7.68236022,2.54504049 7.88999158,3.11589069 C8.09762294,3.71052632 8.21297369,4.37651822 8.21297369,5.09008097 Z M6.92104524,5.09008097 C6.92104524,4.49544534 6.85183479,3.97216599 6.69034374,3.52024291 C6.52885268,3.06831984 6.32122132,2.66396761 6.02130936,2.35475709 C5.7213974,2.04554656 5.39841529,1.78390688 4.98315258,1.61740891 C4.56788986,1.45091093 4.129557,1.35576923 3.62201368,1.35576923 L1.43034935,1.35576923 L1.43034935,8.80060729 L3.62201368,8.80060729 C4.10648685,8.80060729 4.56788986,8.70546559 4.98315258,8.53896761 C5.39841529,8.37246964 5.7213974,8.13461538 6.02130936,7.80161943 C6.29815117,7.49240891 6.52885268,7.08805668 6.69034374,6.6361336 C6.85183479,6.18421053 6.92104524,5.66093117 6.92104524,5.09008097 Z" id="Shape"></path>
                        <path d="M22.9317299,2.99696356 C23.3239225,2.99696356 23.6930449,3.06831984 24.016027,3.21103239 C24.3390091,3.35374494 24.6389211,3.54402834 24.8696226,3.80566802 C25.1003241,4.06730769 25.3079554,4.37651822 25.4233062,4.75708502 C25.5617271,5.13765182 25.6309376,5.56578947 25.6309376,6.04149798 C25.6309376,6.23178138 25.6078674,6.3507085 25.5617271,6.42206478 C25.5155868,6.49342105 25.4463763,6.51720648 25.3310256,6.51720648 L20.9707671,6.51720648 C20.9707671,6.94534413 21.0399775,7.32591093 21.1322581,7.63512146 C21.2245388,7.94433198 21.3860298,8.20597166 21.5475209,8.42004049 C21.7320821,8.63410931 21.9397134,8.77682186 22.1934851,8.89574899 C22.4472567,8.99089069 22.7240986,9.06224696 23.0240105,9.06224696 C23.3239225,9.06224696 23.554624,9.03846154 23.7622553,8.96710526 C23.9698867,8.89574899 24.1544479,8.82439271 24.2928688,8.75303644 C24.4312897,8.68168016 24.5697106,8.61032389 24.6619912,8.53896761 C24.7542718,8.46761134 24.8465524,8.44382591 24.9157629,8.44382591 C25.0080435,8.44382591 25.0772539,8.49139676 25.1464644,8.56275304 L25.4694465,8.99089069 C25.3310256,9.15738866 25.1464644,9.32388664 24.9619032,9.44281377 C24.7542718,9.58552632 24.5466405,9.68066802 24.315939,9.77580972 C24.0852375,9.87095142 23.8545359,9.91852227 23.6238344,9.96609312 C23.3931329,10.013664 23.1393613,10.0374494 22.9086598,10.0374494 C22.4472567,10.0374494 22.031994,9.96609312 21.6628716,9.79959514 C21.2706791,9.63309717 20.9476969,9.41902834 20.6708551,9.10981781 C20.3940133,8.80060729 20.186382,8.42004049 20.0248909,7.99190283 C19.8633999,7.56376518 19.7941894,7.0167004 19.7941894,6.4458502 C19.7941894,5.9701417 19.8633999,5.54200405 20.0018208,5.13765182 C20.1402417,4.7332996 20.347873,4.37651822 20.6016447,4.06730769 C20.8554163,3.75809717 21.1783984,3.54402834 21.570591,3.35374494 C22.031994,3.09210526 22.4472567,2.99696356 22.9317299,2.99696356 Z M22.9548001,3.87702429 C22.4011164,3.87702429 21.9627836,4.04352227 21.6398015,4.37651822 C21.3168194,4.70951417 21.1322581,5.16143725 21.0399775,5.75607287 L24.5927808,5.75607287 C24.5927808,5.47064777 24.5466405,5.23279352 24.47743,4.99493927 C24.4082196,4.75708502 24.2928688,4.56680162 24.1544479,4.40030364 C24.016027,4.23380567 23.8314658,4.11487854 23.6238344,4.01973684 C23.4392732,3.92459514 23.2085717,3.87702429 22.9548001,3.87702429 Z" id="Shape"></path>
                        <polygon id="Path" points="38.9654847 0.0475708502 38.9654847 9.84716599 37.8119772 9.84716599 37.8119772 0.0475708502"></polygon>
                        <path d="M53.1305573,0.975202429 C53.1305573,1.09412955 53.1074872,1.18927126 53.0613469,1.30819838 C53.0152066,1.42712551 52.9459961,1.49848178 52.8767857,1.56983806 C52.8075752,1.64119433 52.7152946,1.71255061 52.623014,1.76012146 C52.5307334,1.80769231 52.4153827,1.83147773 52.3000319,1.83147773 C52.1846811,1.83147773 52.0924005,1.80769231 51.9770498,1.76012146 C51.861699,1.71255061 51.7924886,1.66497976 51.7232781,1.56983806 C51.6540677,1.49848178 51.5848572,1.40334008 51.5387169,1.30819838 C51.4925766,1.21305668 51.4695065,1.09412955 51.4695065,0.975202429 C51.4695065,0.856275304 51.4925766,0.761133603 51.5387169,0.642206478 C51.5848572,0.547064777 51.6309975,0.451923077 51.7232781,0.380566802 C51.7924886,0.309210526 51.8847692,0.237854251 51.9770498,0.190283401 C52.0693304,0.142712551 52.1846811,0.118927126 52.3000319,0.118927126 C52.4153827,0.118927126 52.5076633,0.142712551 52.623014,0.190283401 C52.7152946,0.237854251 52.8075752,0.285425101 52.8767857,0.380566802 C52.9459961,0.451923077 53.0152066,0.547064777 53.0613469,0.642206478 C53.1074872,0.761133603 53.1305573,0.880060729 53.1305573,0.975202429 Z M52.8767857,3.09210526 L52.8767857,9.84716599 L51.7232781,9.84716599 L51.7232781,3.09210526 L52.8767857,3.09210526 Z" id="Shape"></path>
                        <path d="M64.6656327,3.09210526 L65.6115089,3.09210526 C65.7037895,3.09210526 65.773,3.11589069 65.8422104,3.16346154 C65.9114209,3.21103239 65.934491,3.25860324 65.9806313,3.32995951 L67.6416822,7.68269231 C67.7108926,7.84919028 67.7570329,7.99190283 67.7801031,8.15840081 C67.8031732,8.32489879 67.8493135,8.46761134 67.8723837,8.63410931 C67.8954538,8.46761134 67.9415942,8.32489879 67.9877345,8.15840081 C68.0338748,7.99190283 68.0800151,7.84919028 68.1261554,7.68269231 L69.8102764,3.32995951 C69.8333465,3.25860324 69.8794868,3.21103239 69.9256271,3.16346154 C69.9948376,3.11589069 70.064048,3.09210526 70.1332585,3.09210526 L71.0329944,3.09210526 L68.3568569,9.84716599 L67.3187001,9.84716599 L64.6656327,3.09210526 Z" id="Path"></path>
                        <path d="M85.1288565,2.99696356 C85.5210491,2.99696356 85.8901715,3.06831984 86.2131536,3.21103239 C86.5361357,3.35374494 86.8360477,3.54402834 87.0667492,3.80566802 C87.2974507,4.06730769 87.505082,4.37651822 87.6204328,4.75708502 C87.7588537,5.13765182 87.8280642,5.56578947 87.8280642,6.04149798 C87.8280642,6.23178138 87.804994,6.3507085 87.7588537,6.42206478 C87.7127134,6.49342105 87.6435029,6.51720648 87.5281522,6.51720648 L83.1678937,6.51720648 C83.1678937,6.94534413 83.2371041,7.32591093 83.3293847,7.63512146 C83.4216653,7.94433198 83.5831564,8.20597166 83.7446475,8.42004049 C83.9292087,8.63410931 84.13684,8.77682186 84.3906117,8.89574899 C84.6443833,8.99089069 84.9212252,9.06224696 85.2211371,9.06224696 C85.5210491,9.06224696 85.7517506,9.03846154 85.9593819,8.96710526 C86.1670133,8.89574899 86.3515745,8.82439271 86.4899954,8.75303644 C86.6284163,8.68168016 86.7668372,8.61032389 86.8591178,8.53896761 C86.9513984,8.46761134 87.043679,8.44382591 87.1128895,8.44382591 C87.2051701,8.44382591 87.2743805,8.49139676 87.343591,8.56275304 L87.6665731,8.99089069 C87.5281522,9.15738866 87.343591,9.32388664 87.1590298,9.44281377 C86.9513984,9.58552632 86.7437671,9.68066802 86.5130656,9.77580972 C86.282364,9.87095142 86.0516625,9.91852227 85.820961,9.96609312 C85.5902595,10.013664 85.3364879,10.0374494 85.1057864,10.0374494 C84.6443833,10.0374494 84.2291206,9.96609312 83.8599982,9.79959514 C83.4678056,9.63309717 83.1448235,9.41902834 82.8679817,9.10981781 C82.5911399,8.80060729 82.3835086,8.42004049 82.2220175,7.99190283 C82.0605265,7.56376518 81.991316,7.0167004 81.991316,6.4458502 C81.991316,5.9701417 82.0605265,5.54200405 82.1989474,5.13765182 C82.3373683,4.7332996 82.5449996,4.37651822 82.7987713,4.06730769 C83.0525429,3.75809717 83.375525,3.54402834 83.7677176,3.35374494 C84.2291206,3.09210526 84.6674535,2.99696356 85.1288565,2.99696356 Z M85.1519267,3.87702429 C84.598243,3.87702429 84.1599102,4.04352227 83.8369281,4.37651822 C83.513946,4.70951417 83.3293847,5.16143725 83.2371041,5.75607287 L86.7899074,5.75607287 C86.7899074,5.47064777 86.7437671,5.23279352 86.6745566,4.99493927 C86.6053462,4.75708502 86.4899954,4.56680162 86.3515745,4.40030364 C86.2131536,4.23380567 86.0285924,4.11487854 85.820961,4.01973684 C85.65947,3.92459514 85.4287685,3.87702429 85.1519267,3.87702429 Z" id="Shape"></path>
                        <path d="M99.893753,9.84716599 L99.893753,3.09210526 L100.562787,3.09210526 C100.678138,3.09210526 100.770419,3.11589069 100.816559,3.16346154 C100.862699,3.21103239 100.88577,3.30617409 100.90884,3.42510121 L100.97805,4.47165992 C101.208752,3.99595142 101.485593,3.63917004 101.808576,3.37753036 C102.131558,3.11589069 102.52375,2.97317814 102.962083,2.97317814 C103.146644,2.97317814 103.308135,2.99696356 103.446556,3.04453441 C103.584977,3.09210526 103.723398,3.13967611 103.861819,3.21103239 L103.723398,4.09109312 C103.700328,4.21002024 103.631117,4.25759109 103.515767,4.25759109 C103.446556,4.25759109 103.354276,4.23380567 103.238925,4.18623482 C103.123574,4.13866397 102.939013,4.11487854 102.708311,4.11487854 C102.316119,4.11487854 101.970067,4.23380567 101.693225,4.47165992 C101.416383,4.70951417 101.208752,5.06629555 101.02419,5.51821862 L101.02419,9.82338057 L99.893753,9.82338057 L99.893753,9.84716599 Z" id="Path"></path>
                        <path d="M117.611629,11.8451417 C117.565489,11.9402834 117.519348,12.0116397 117.473208,12.0592105 C117.403997,12.1067814 117.334787,12.1305668 117.196366,12.1305668 L116.342771,12.1305668 L117.542418,9.44281377 L114.843211,3.09210526 L115.835227,3.09210526 C115.927508,3.09210526 116.019788,3.11589069 116.065929,3.16346154 C116.112069,3.21103239 116.158209,3.28238866 116.18128,3.32995951 L117.934611,7.58755061 C117.980751,7.68269231 118.003821,7.77783401 118.026892,7.87297571 C118.049962,7.96811741 118.073032,8.06325911 118.096102,8.18218623 C118.119172,8.08704453 118.165312,7.99190283 118.188383,7.87297571 C118.211453,7.77783401 118.257593,7.68269231 118.280663,7.56376518 L119.987854,3.32995951 C120.010925,3.25860324 120.057065,3.21103239 120.126275,3.16346154 C120.195486,3.11589069 120.264696,3.09210526 120.333907,3.09210526 L121.256713,3.09210526 L117.611629,11.8451417 Z" id="Path"></path>
                    </g>
                </g>
            </g>
        </g>
    </g>
</svg>